<svg xmlns="http://www.w3.org/2000/svg" width="20" height="24" viewBox="0 0 20 24">
    <g fill="none" fill-rule="evenodd">
        <g fill="#000" fill-rule="nonzero">
            <g>
                <g>
                    <g>
                        <g>
                            <g>
                                <g>
                                    <g>
                                        <path d="M16.77 0H5.149c-1.44 0-2.603 1.162-2.626 2.603C1.127 2.673.035 3.835.035 5.23v16.108c0 1.442 1.185 2.627 2.626 2.627h11.623c1.44 0 2.603-1.162 2.626-2.603 1.395-.07 2.487-1.232 2.487-2.627V2.65C19.421 1.185 18.235 0 16.771 0zm-.72 21.338c0 .977-.79 1.767-1.766 1.767H2.66c-.976 0-1.743-.79-1.743-1.743V5.23c0-.976.79-1.743 1.743-1.743h9.391V7.53c0 .233.186.442.442.442h3.556v13.365zM12.935 7.09V4.184l2.58 2.906h-2.58zm3.998 13.412V7.532c0-.047-.023-.117-.023-.163 0-.024-.023-.047-.023-.047-.023-.023-.023-.046-.046-.07l-4.022-4.51c-.023-.022-.07-.046-.116-.069-.023 0-.023-.023-.047-.023-.046-.023-.116-.047-.185-.047H3.405c.023-.953.79-1.72 1.743-1.72h11.623c.976 0 1.743.79 1.743 1.744v16.131h.023c0 .907-.72 1.674-1.604 1.744z" transform="translate(-512 -680) translate(500 148) translate(0 172) translate(0 110) translate(0 49) translate(12 195) translate(0 6)"/>
                                        <path d="M3.196 7.973h3.882c.232 0 .441-.186.441-.442 0-.232-.186-.441-.441-.441H3.196c-.232 0-.442.186-.442.441 0 .256.186.442.442.442zM7.055 18.642H3.196c-.232 0-.442.186-.442.442 0 .232.186.441.442.441h3.882c.232 0 .441-.186.441-.441-.023-.233-.209-.442-.464-.442zM2.754 10.46c0 .232.186.442.442.442h10.367c.232 0 .442-.186.442-.442 0-.232-.21-.442-.442-.442H3.196c-.232 0-.442.186-.442.442zM13.563 12.18H3.196c-.232 0-.442.186-.442.442 0 .232.186.441.442.441h10.367c.232 0 .442-.186.442-.441 0-.233-.21-.442-.442-.442zM13.563 14.365H3.196c-.232 0-.442.186-.442.442 0 .232.186.441.442.441h10.367c.232 0 .442-.186.442-.441 0-.256-.21-.442-.442-.442zM13.563 16.527H3.196c-.232 0-.442.186-.442.442 0 .232.186.441.442.441h10.367c.232 0 .442-.186.442-.441 0-.256-.21-.442-.442-.442z" transform="translate(-512 -680) translate(500 148) translate(0 172) translate(0 110) translate(0 49) translate(12 195) translate(0 6)"/>
                                    </g>
                                </g>
                            </g>
                        </g>
                    </g>
                </g>
            </g>
        </g>
    </g>
</svg>
