<svg width="22" height="20" viewBox="0 0 22 20" fill="none" xmlns="http://www.w3.org/2000/svg">
<path d="M10.2721 17.949C10.2721 19.082 9.35411 20 8.22211 20C7.13911 20 6.25411 19.164 6.17611 18.102L6.17011 17.949H10.2721ZM18.2001 11L18.1991 14H21.2001V16H18.1991L18.2001 19H16.2001L16.1991 16H13.2001V14H16.1991L16.2001 11H18.2001ZM8.22111 0C9.02511 0 9.68311 0.613 9.75311 1.398L9.76011 1.538V2.236C12.6141 2.913 14.2781 5.416 14.3701 8.449L14.3751 8.718L14.3741 8.8C12.3631 9.905 11.0001 12.043 11.0001 14.5C11.0001 15.357 11.1661 16.174 11.4671 16.923H0.0161133V15.897L2.06711 13.847V8.718C2.06711 5.654 3.65011 3.084 6.43411 2.3L6.68311 2.236V1.538C6.68311 0.688 7.37011 0 8.22011 0H8.22111Z" fill="white"/>
</svg>
