<svg width="24" height="24" viewBox="0 0 24 24" fill="none" xmlns="http://www.w3.org/2000/svg">
<path d="M12.3252 7.38281L10.7432 8.97656C11.4307 9.03906 12.0205 9.17578 12.5127 9.38672C13.0049 9.59766 13.4268 9.87891 13.7783 10.2305C14.4111 10.8633 14.833 11.5664 15.0439 12.3398C15.2549 13.1055 15.2549 13.8711 15.0439 14.6367C14.833 15.3945 14.4111 16.0898 13.7783 16.7227L10.1338 20.3672C9.50098 21.0078 8.80176 21.4336 8.03613 21.6445C7.27051 21.8555 6.50488 21.8555 5.73926 21.6445C4.97363 21.4336 4.27832 21.0117 3.65332 20.3789C3.0127 19.7383 2.58691 19.0352 2.37598 18.2695C2.16504 17.5039 2.16504 16.7422 2.37598 15.9844C2.58691 15.2188 3.00879 14.5195 3.6416 13.8867L5.65723 11.8477C5.50098 11.4727 5.39551 11.0703 5.34082 10.6406C5.29395 10.2031 5.30957 9.78516 5.3877 9.38672L2.17676 12.5977C1.28613 13.4961 0.688477 14.4883 0.383789 15.5742C0.0869141 16.6523 0.0869141 17.7383 0.383789 18.832C0.680664 19.918 1.28223 20.9141 2.18848 21.8203C3.09473 22.7344 4.09082 23.3398 5.17676 23.6367C6.27051 23.9414 7.36035 23.9414 8.44629 23.6367C9.53223 23.332 10.5244 22.7305 11.4229 21.832L15.2432 18.0117C16.1338 17.1133 16.7314 16.1211 17.0361 15.0352C17.3408 13.9492 17.3408 12.8633 17.0361 11.7773C16.7393 10.6836 16.1377 9.68359 15.2314 8.77734C14.8877 8.44922 14.4854 8.16406 14.0244 7.92188C13.5713 7.67969 13.0049 7.5 12.3252 7.38281ZM11.6807 16.6172L13.251 15.0234C12.5635 14.9609 11.9736 14.8242 11.4814 14.6133C10.9893 14.4023 10.5713 14.1172 10.2275 13.7578C9.58691 13.125 9.16113 12.4258 8.9502 11.6602C8.73926 10.8945 8.73926 10.1289 8.9502 9.36328C9.16113 8.59766 9.58301 7.89844 10.2158 7.26562L13.8721 3.63281C14.4971 2.99219 15.1924 2.56641 15.958 2.35547C16.7236 2.14453 17.4893 2.14453 18.2549 2.35547C19.0205 2.56641 19.7197 2.98828 20.3525 3.62109C20.9932 4.26172 21.4189 4.96484 21.6299 5.73047C21.8408 6.49609 21.8369 7.26172 21.6182 8.02734C21.4072 8.78516 20.9854 9.48047 20.3525 10.1133L18.3369 12.1406C18.4932 12.5234 18.5947 12.9336 18.6416 13.3711C18.6963 13.8008 18.6846 14.2109 18.6064 14.6016L21.8174 11.4023C22.7158 10.5039 23.3135 9.51172 23.6104 8.42578C23.915 7.33984 23.915 6.25391 23.6104 5.16797C23.3135 4.08203 22.7119 3.08203 21.8057 2.16797C20.8994 1.26172 19.8994 0.660156 18.8057 0.363281C17.7197 0.0585938 16.6338 0.0585938 15.5479 0.363281C14.4697 0.667969 13.4814 1.26562 12.583 2.15625L8.75098 5.98828C7.86035 6.88672 7.2627 7.87891 6.95801 8.96484C6.66113 10.0508 6.66113 11.1367 6.95801 12.2227C7.25488 13.3086 7.85645 14.3086 8.7627 15.2227C9.10645 15.5508 9.50879 15.8359 9.96973 16.0781C10.4307 16.3125 11.001 16.4922 11.6807 16.6172Z" fill="white"/>
</svg>
