<svg width="48" height="48" viewBox="0 0 48 48" fill="none" xmlns="http://www.w3.org/2000/svg">
<path fill-rule="evenodd" clip-rule="evenodd" d="M8.67765 37.5363C8.99065 37.8493 9.37212 38.0038 9.82205 37.9999C10.272 37.996 10.7865 37.861 11.3655 37.595L38.2677 25.5759C38.5025 25.4663 38.7137 25.3528 38.9015 25.2355C39.0893 25.1181 39.2458 24.9968 39.371 24.8716C39.6449 24.5977 39.7818 24.3043 39.7818 23.9913C39.7818 23.6783 39.6449 23.3849 39.371 23.111C39.2458 22.9858 39.0893 22.8645 38.9015 22.7471C38.7137 22.6298 38.4985 22.5202 38.256 22.4185L11.3186 10.3641C10.7708 10.1294 10.2739 10.0081 9.82792 10.0003C9.3819 9.99246 9.00239 10.145 8.68939 10.458C8.32162 10.8258 8.17099 11.2268 8.2375 11.6611C8.30401 12.0954 8.49768 12.6138 8.8185 13.2163L14.7342 23.9913L8.85371 34.7311C8.51724 35.3336 8.31184 35.8598 8.2375 36.3097C8.16316 36.7597 8.30988 37.1685 8.67765 37.5363ZM16.1192 23.2401L10.3561 12.6412C10.2074 12.383 10.1253 12.1952 10.1096 12.0778C10.094 11.9604 10.1174 11.8705 10.18 11.8079C10.2583 11.7296 10.3541 11.6924 10.4676 11.6963C10.5811 11.7003 10.7474 11.7492 10.9665 11.8431L34.946 22.6063C35.3294 22.7863 35.7168 22.9467 36.108 23.0875C36.4993 23.2284 36.8553 23.3575 37.1761 23.4749C36.7927 23.4357 36.3349 23.3849 35.8029 23.3223C35.2708 23.2597 34.8365 23.2323 34.5 23.2401H16.1192ZM10.092 35.9224C10.0725 36.0437 10.0979 36.1395 10.1683 36.21C10.2387 36.2804 10.3326 36.3117 10.45 36.3039C10.5674 36.296 10.7395 36.2413 10.9665 36.1395L34.9578 25.3881C35.3412 25.2081 35.7266 25.0496 36.1139 24.9127C36.5012 24.7758 36.8592 24.6447 37.1879 24.5195C36.7966 24.5664 36.331 24.6173 35.7911 24.6721C35.2512 24.7269 34.8247 24.7542 34.5117 24.7542L16.0957 24.7425L10.3326 35.3649C10.1918 35.6153 10.1116 35.8011 10.092 35.9224Z" fill="#484F67"/>
</svg>
