<svg width="24" height="24" viewBox="0 0 24 24" fill="none" xmlns="http://www.w3.org/2000/svg">
<rect width="24" height="24" fill="white" fill-opacity="0.01"/>
<path fill-rule="evenodd" clip-rule="evenodd" d="M1 12C1 5.9347 5.9347 1 12 1C18.0653 1 23 5.9347 23 12C23 18.0653 18.0653 23 12 23C5.9347 23 1 18.0653 1 12ZM1.95652 12C1.95652 17.5383 6.46174 22.0435 12 22.0435C17.5383 22.0435 22.0435 17.5383 22.0435 12C22.0435 6.46174 17.5383 1.95652 12 1.95652C6.46174 1.95652 1.95652 6.46174 1.95652 12Z" fill="#484F67"/>
<path d="M12 0.75C5.79662 0.75 0.75 5.79662 0.75 12H1.25C1.25 6.07277 6.07277 1.25 12 1.25V0.75ZM23.25 12C23.25 5.79662 18.2034 0.75 12 0.75V1.25C17.9272 1.25 22.75 6.07277 22.75 12H23.25ZM12 23.25C18.2034 23.25 23.25 18.2034 23.25 12H22.75C22.75 17.9272 17.9272 22.75 12 22.75V23.25ZM0.75 12C0.75 18.2034 5.79662 23.25 12 23.25V22.75C6.07277 22.75 1.25 17.9272 1.25 12H0.75ZM12 21.7935C6.59981 21.7935 2.20652 17.4002 2.20652 12H1.70652C1.70652 17.6763 6.32367 22.2935 12 22.2935V21.7935ZM21.7935 12C21.7935 17.4002 17.4002 21.7935 12 21.7935V22.2935C17.6763 22.2935 22.2935 17.6763 22.2935 12H21.7935ZM12 2.20652C17.4002 2.20652 21.7935 6.59981 21.7935 12H22.2935C22.2935 6.32367 17.6763 1.70652 12 1.70652V2.20652ZM2.20652 12C2.20652 6.59981 6.59981 2.20652 12 2.20652V1.70652C6.32367 1.70652 1.70652 6.32367 1.70652 12H2.20652Z" fill="#484F67"/>
<path fill-rule="evenodd" clip-rule="evenodd" d="M8.17404 8.6521C8.96508 8.6521 9.60882 9.29584 9.60882 10.0869C9.60882 10.8779 8.96508 11.5217 8.17404 11.5217C7.383 11.5217 6.73926 10.8779 6.73926 10.0869C6.73926 9.29584 7.383 8.6521 8.17404 8.6521ZM8.17404 9.60862C7.91052 9.60862 7.69578 9.82336 7.69578 10.0869C7.69578 10.3504 7.91052 10.5651 8.17404 10.5651C8.43756 10.5651 8.6523 10.3504 8.6523 10.0869C8.6523 9.82336 8.43756 9.60862 8.17404 9.60862Z" fill="#484F67"/>
<path d="M9.85882 10.0869C9.85882 9.15777 9.10316 8.4021 8.17404 8.4021V8.9021C8.82701 8.9021 9.35882 9.43391 9.35882 10.0869H9.85882ZM8.17404 11.7717C9.10316 11.7717 9.85882 11.016 9.85882 10.0869H9.35882C9.35882 10.7399 8.82701 11.2717 8.17404 11.2717V11.7717ZM6.48926 10.0869C6.48926 11.016 7.24493 11.7717 8.17404 11.7717V11.2717C7.52107 11.2717 6.98926 10.7399 6.98926 10.0869H6.48926ZM8.17404 8.4021C7.24493 8.4021 6.48926 9.15777 6.48926 10.0869H6.98926C6.98926 9.43391 7.52107 8.9021 8.17404 8.9021V8.4021ZM7.94578 10.0869C7.94578 9.96143 8.04859 9.85862 8.17404 9.85862V9.35862C7.77245 9.35862 7.44578 9.68529 7.44578 10.0869H7.94578ZM8.17404 10.3151C8.04859 10.3151 7.94578 10.2123 7.94578 10.0869H7.44578C7.44578 10.4885 7.77245 10.8151 8.17404 10.8151V10.3151ZM8.4023 10.0869C8.4023 10.2123 8.29949 10.3151 8.17404 10.3151V10.8151C8.57563 10.8151 8.9023 10.4885 8.9023 10.0869H8.4023ZM8.17404 9.85862C8.29949 9.85862 8.4023 9.96143 8.4023 10.0869H8.9023C8.9023 9.68529 8.57563 9.35862 8.17404 9.35862V9.85862Z" fill="#484F67"/>
<path fill-rule="evenodd" clip-rule="evenodd" d="M14.3916 10.0869C14.3916 9.29584 15.0353 8.6521 15.8264 8.6521C16.6174 8.6521 17.2612 9.29584 17.2612 10.0869C17.2612 10.8779 16.6174 11.5217 15.8264 11.5217C15.0353 11.5217 14.3916 10.8779 14.3916 10.0869ZM15.3481 10.0869C15.3481 10.3504 15.5629 10.5651 15.8264 10.5651C16.0899 10.5651 16.3046 10.3504 16.3046 10.0869C16.3046 9.82336 16.0899 9.60862 15.8264 9.60862C15.5629 9.60862 15.3481 9.82336 15.3481 10.0869Z" fill="#484F67"/>
<path d="M15.8264 8.4021C14.8973 8.4021 14.1416 9.15777 14.1416 10.0869H14.6416C14.6416 9.43391 15.1734 8.9021 15.8264 8.9021V8.4021ZM17.5112 10.0869C17.5112 9.15777 16.7555 8.4021 15.8264 8.4021V8.9021C16.4794 8.9021 17.0112 9.43391 17.0112 10.0869H17.5112ZM15.8264 11.7717C16.7555 11.7717 17.5112 11.016 17.5112 10.0869H17.0112C17.0112 10.7399 16.4794 11.2717 15.8264 11.2717V11.7717ZM14.1416 10.0869C14.1416 11.016 14.8973 11.7717 15.8264 11.7717V11.2717C15.1734 11.2717 14.6416 10.7399 14.6416 10.0869H14.1416ZM15.8264 10.3151C15.7009 10.3151 15.5981 10.2123 15.5981 10.0869H15.0981C15.0981 10.4885 15.4248 10.8151 15.8264 10.8151V10.3151ZM16.0546 10.0869C16.0546 10.2123 15.9518 10.3151 15.8264 10.3151V10.8151C16.228 10.8151 16.5546 10.4885 16.5546 10.0869H16.0546ZM15.8264 9.85862C15.9518 9.85862 16.0546 9.96143 16.0546 10.0869H16.5546C16.5546 9.68529 16.228 9.35862 15.8264 9.35862V9.85862ZM15.5981 10.0869C15.5981 9.96143 15.7009 9.85862 15.8264 9.85862V9.35862C15.4248 9.35862 15.0981 9.68529 15.0981 10.0869H15.5981Z" fill="#484F67"/>
<path d="M16.6237 14.5133C16.4267 14.3369 16.124 14.3541 15.9484 14.5506C14.9508 15.6655 13.5122 16.3044 12.0004 16.3044C10.4891 16.3044 9.04999 15.6655 8.05234 14.5506C7.87586 14.3541 7.57408 14.3369 7.37704 14.5133C7.17999 14.6893 7.16373 14.9916 7.33973 15.1886C8.51865 16.5058 10.2174 17.261 12.0004 17.261C13.7838 17.261 15.4826 16.5053 16.661 15.1886C16.837 14.9916 16.8203 14.6893 16.6237 14.5133Z" fill="#484F67" stroke="#484F67" stroke-width="0.5"/>
</svg>
