<svg xmlns="http://www.w3.org/2000/svg" width="48" height="48" viewBox="0 0 48 48">
    <g fill="none" fill-rule="evenodd">
        <g>
            <g>
                <g>
                    <g>
                        <g transform="translate(-151 -488) translate(4 464) translate(48 24) translate(99)">
                            <circle cx="24" cy="24" r="24" fill="#9F5BCA"/>
                            <g fill="#FFF" fill-rule="nonzero">
                                <path d="M25.375 0H2.625C1.175 0 0 1.343 0 3v18c0 1.657 1.175 3 2.625 3h22.75C26.825 24 28 22.657 28 21V3c0-1.657-1.175-3-2.625-3zm-.328 21H2.953c-.181 0-.328-.168-.328-.375V3.375c0-.207.147-.375.328-.375h22.094c.181 0 .328.168.328.375v17.25c0 .207-.147.375-.328.375zM7 5.5C5.792 5.5 4.812 6.62 4.812 8s.98 2.5 2.188 2.5c1.208 0 2.188-1.12 2.188-2.5S8.207 5.5 7 5.5zM5.25 18h17.5v-5l-4.786-5.47c-.256-.293-.672-.293-.928 0L10.5 15l-2.161-2.47c-.256-.293-.672-.293-.928 0L5.25 15v3z" transform="translate(10 12)"/>
                            </g>
                        </g>
                    </g>
                </g>
            </g>
        </g>
    </g>
</svg>
