<svg width="24" height="24" viewBox="0 0 24 24" fill="none" xmlns="http://www.w3.org/2000/svg">
<path d="M11.1602 4.40907L18.9892 13.7392C20.4937 15.5323 20.26 18.2031 18.467 19.7076C16.674 21.2121 14.0031 20.9785 12.4986 19.1855L3.98887 9.04395C3.04939 7.92433 3.1956 6.25321 4.31522 5.31374C5.43484 4.37426 7.106 4.52044 8.04547 5.64006L15.1936 14.1589C15.5681 14.6051 15.5134 15.2731 15.0631 15.651C14.6128 16.0288 13.9454 15.9667 13.571 15.5204L7.10366 7.81293L5.88668 8.8341L12.3541 16.5416C13.2936 17.6613 14.9647 17.8075 16.0843 16.868C17.2039 15.9285 17.3501 14.2574 16.4106 13.1377L9.26245 4.61889C7.75796 2.8259 5.08708 2.59223 3.29409 4.09673C1.5011 5.60122 1.26743 8.2721 2.77193 10.0651L11.2817 20.2066C13.3512 22.673 17.0258 22.9907 19.4882 20.9246C21.9505 18.8584 22.2757 15.1845 20.2061 12.7181L12.3772 3.3879L11.1602 4.40907Z" fill="#484F67"/>
</svg>
