<svg width="25" height="25" viewBox="0 0 25 25" fill="none" xmlns="http://www.w3.org/2000/svg">
<path d="M5.59615 3.78606C5.53029 3.71182 5.45034 3.65139 5.36095 3.60827C5.27156 3.56515 5.1745 3.5402 5.07539 3.53487C4.97629 3.52953 4.87711 3.54393 4.78361 3.57721C4.69011 3.61049 4.60414 3.66199 4.53069 3.72874C4.45724 3.79549 4.39777 3.87616 4.35573 3.96606C4.31368 4.05596 4.2899 4.15331 4.28576 4.25247C4.28161 4.35164 4.29719 4.45063 4.33159 4.54373C4.36599 4.63683 4.41852 4.72217 4.48615 4.79481L6.05552 6.52169C5.38902 7.66569 5.03892 8.96644 5.04115 10.2904C5.04115 13.6036 4.26677 16.1386 3.74646 17.0348C3.61359 17.2627 3.54315 17.5215 3.54225 17.7853C3.54134 18.0491 3.61 18.3084 3.7413 18.5371C3.87261 18.7659 4.06191 18.956 4.29012 19.0883C4.51834 19.2205 4.77739 19.2902 5.04115 19.2904H17.6636L19.4861 21.2948C19.552 21.3691 19.632 21.4295 19.7213 21.4726C19.8107 21.5157 19.9078 21.5407 20.0069 21.546C20.106 21.5513 20.2052 21.5369 20.2987 21.5037C20.3922 21.4704 20.4782 21.4189 20.5516 21.3521C20.6251 21.2854 20.6845 21.2047 20.7266 21.1148C20.7686 21.0249 20.7924 20.9276 20.7965 20.8284C20.8007 20.7292 20.7851 20.6302 20.7507 20.5371C20.7163 20.444 20.6638 20.3587 20.5961 20.2861L5.59615 3.78606ZM5.04115 17.7904C5.76302 16.5492 6.54115 13.6729 6.54115 10.2904C6.53984 9.39419 6.74043 8.50916 7.12803 7.70106L16.2996 17.7904H5.04115ZM16.2911 21.5404C16.2911 21.7393 16.2121 21.9301 16.0715 22.0708C15.9308 22.2114 15.7401 22.2904 15.5411 22.2904H9.54115C9.34224 22.2904 9.15147 22.2114 9.01082 22.0708C8.87017 21.9301 8.79115 21.7393 8.79115 21.5404C8.79115 21.3415 8.87017 21.1508 9.01082 21.0101C9.15147 20.8695 9.34224 20.7904 9.54115 20.7904H15.5411C15.7401 20.7904 15.9308 20.8695 16.0715 21.0101C16.2121 21.1508 16.2911 21.3415 16.2911 21.5404ZM20.6036 17.3451C20.516 17.3791 20.4229 17.3966 20.329 17.3967C20.1783 17.3965 20.0312 17.351 19.9068 17.2661C19.7824 17.1811 19.6864 17.0607 19.6315 16.9204C18.949 15.1832 18.5411 12.7045 18.5411 10.2904C18.5414 9.24101 18.2665 8.20986 17.7437 7.2999C17.221 6.38994 16.4687 5.63301 15.562 5.10465C14.6553 4.57629 13.6258 4.29499 12.5764 4.28882C11.527 4.28265 10.4943 4.55184 9.58146 5.0695C9.40885 5.16303 9.20645 5.18515 9.01771 5.13111C8.82898 5.07707 8.66895 4.95118 8.572 4.78047C8.47505 4.60975 8.4489 4.40783 8.49916 4.21806C8.54942 4.02828 8.6721 3.86578 8.84084 3.76544C9.98185 3.11823 11.2727 2.78162 12.5844 2.78919C13.8962 2.79676 15.183 3.14825 16.3165 3.80858C17.45 4.46891 18.3904 5.41498 19.044 6.55236C19.6976 7.68974 20.0414 8.97865 20.0411 10.2904C20.0411 13.6045 20.7958 15.7833 21.0274 16.3729C21.1001 16.5581 21.0963 16.7645 21.0168 16.9468C20.9374 17.1291 20.7887 17.2724 20.6036 17.3451Z" fill="black"/>
</svg>
