<svg width="16" height="16" viewBox="0 0 16 16" fill="none" xmlns="http://www.w3.org/2000/svg">
<path d="M4.10352 13.8799C4.86523 13.8799 6.41211 13.1299 7.56055 12.3096C11.4453 12.3975 14.3574 10.1592 14.3574 7.22363C14.3574 4.39941 11.5273 2.12012 8 2.12012C4.47266 2.12012 1.64258 4.39941 1.64258 7.22363C1.64258 9.04004 2.79102 10.6631 4.53711 11.4893C4.29102 11.958 3.8457 12.5908 3.60547 12.9189C3.2832 13.3408 3.48828 13.8799 4.10352 13.8799ZM4.73047 12.8486C4.67773 12.8721 4.6543 12.8369 4.68945 12.79C4.98828 12.4209 5.41602 11.8584 5.61523 11.4893C5.77344 11.1963 5.72656 10.9326 5.375 10.7627C3.6582 9.96582 2.66797 8.68848 2.66797 7.22363C2.66797 4.97363 5.0293 3.13965 8 3.13965C10.9707 3.13965 13.3379 4.97363 13.3379 7.22363C13.3379 9.47363 10.9707 11.3076 8 11.3076C7.89453 11.3076 7.73047 11.3018 7.52539 11.2959C7.29102 11.2959 7.10938 11.3662 6.89258 11.5361C6.22461 12.0283 5.22852 12.6494 4.73047 12.8486Z" fill="#484F67" fill-opacity="0.7"/>
</svg>
