
<svg width="16" height="16" viewBox="0 0 16 16" fill="none" xmlns="http://www.w3.org/2000/svg">
<path d="M10.8887 7.97656C12.2188 7.97656 13.2969 6.80469 13.2969 5.35742C13.2969 3.93945 12.2246 2.80859 10.8887 2.80859C9.56445 2.80859 8.47461 3.95703 8.48047 5.36914C8.48047 6.80469 9.55859 7.97656 10.8887 7.97656ZM4.48438 8.10547C5.63867 8.10547 6.58203 7.07422 6.58203 5.80273C6.58203 4.56641 5.64453 3.56445 4.48438 3.56445C3.33594 3.56445 2.38672 4.58398 2.38672 5.81445C2.39258 7.08008 3.33008 8.10547 4.48438 8.10547ZM10.8887 7.07422C10.1035 7.07422 9.42969 6.33008 9.42969 5.36914C9.42969 4.43164 10.0918 3.71094 10.8887 3.71094C11.6914 3.71094 12.3477 4.41992 12.3477 5.35742C12.3477 6.31836 11.6855 7.07422 10.8887 7.07422ZM4.48438 7.21484C3.82812 7.21484 3.27734 6.58789 3.27734 5.81445C3.27734 5.06445 3.82812 4.45508 4.48438 4.45508C5.15234 4.45508 5.69727 5.05273 5.69727 5.80273C5.69727 6.58789 5.14062 7.21484 4.48438 7.21484ZM1.41406 13.1914H5.74414C5.45703 13.0273 5.25781 12.6641 5.29297 12.3125H1.32031C1.20898 12.3125 1.16211 12.2656 1.16211 12.1602C1.16211 10.8418 2.69141 9.59375 4.47852 9.59375C5.13477 9.59375 5.76172 9.75195 6.27148 10.0449C6.44727 9.79883 6.66992 9.58789 6.94531 9.40039C6.23633 8.94922 5.36914 8.70898 4.47852 8.70898C2.14648 8.70898 0.253906 10.3906 0.253906 12.2305C0.253906 12.8691 0.640625 13.1914 1.41406 13.1914ZM7.41992 13.1914H14.3516C15.2949 13.1914 15.7461 12.8984 15.7461 12.2715C15.7461 10.7891 13.877 8.7207 10.8887 8.7207C7.89453 8.7207 6.02539 10.7891 6.02539 12.2715C6.02539 12.8984 6.47656 13.1914 7.41992 13.1914ZM7.19727 12.2891C7.0625 12.2891 7.00391 12.248 7.00391 12.1426C7.00391 11.2637 8.39258 9.61719 10.8887 9.61719C13.3789 9.61719 14.7676 11.2637 14.7676 12.1426C14.7676 12.248 14.7148 12.2891 14.5742 12.2891H7.19727Z" fill="#666666"/>
</svg>
