<svg width="54" height="54" viewBox="0 0 54 54" fill="none" xmlns="http://www.w3.org/2000/svg">
<rect width="54" height="54" rx="27" fill="#D0D8E2"/>
<path fill-rule="evenodd" clip-rule="evenodd" d="M24.2488 34.0342L38.1152 20.1679L36.8352 18.888L22.9689 32.7543L16.5692 26.3546L15.2893 27.6346L23.2089 35.5542L24.4888 34.2742L24.2488 34.0342Z" fill="white"/>
<path d="M38.1152 20.1679L38.4687 20.5214L38.8223 20.1679L38.4687 19.8143L38.1152 20.1679ZM24.2488 34.0342L23.8953 33.6807L23.5417 34.0342L23.8953 34.3878L24.2488 34.0342ZM36.8352 18.888L37.1888 18.5344L36.8352 18.1808L36.4817 18.5344L36.8352 18.888ZM22.9689 32.7543L22.6153 33.1078L22.9689 33.4614L23.3224 33.1078L22.9689 32.7543ZM16.5692 26.3546L16.9228 26.0011L16.5692 25.6475L16.2157 26.0011L16.5692 26.3546ZM15.2893 27.6346L14.9357 27.281L14.5822 27.6346L14.9357 27.9881L15.2893 27.6346ZM23.2089 35.5542L22.8553 35.9077L23.2089 36.2613L23.5624 35.9077L23.2089 35.5542ZM24.4888 34.2742L24.8424 34.6278L25.1959 34.2742L24.8424 33.9207L24.4888 34.2742ZM37.7616 19.8143L23.8953 33.6807L24.6024 34.3878L38.4687 20.5214L37.7616 19.8143ZM36.4817 19.2415L37.7616 20.5214L38.4687 19.8143L37.1888 18.5344L36.4817 19.2415ZM23.3224 33.1078L37.1888 19.2415L36.4817 18.5344L22.6153 32.4007L23.3224 33.1078ZM16.2157 26.7082L22.6153 33.1078L23.3224 32.4007L16.9228 26.0011L16.2157 26.7082ZM15.6428 27.9881L16.9228 26.7082L16.2157 26.0011L14.9357 27.281L15.6428 27.9881ZM23.5624 35.2006L15.6428 27.281L14.9357 27.9881L22.8553 35.9077L23.5624 35.2006ZM24.1352 33.9207L22.8553 35.2006L23.5624 35.9077L24.8424 34.6278L24.1352 33.9207ZM23.8953 34.3878L24.1352 34.6278L24.8424 33.9207L24.6024 33.6807L23.8953 34.3878Z" fill="white"/>
</svg>
