<svg width="24" height="24" viewBox="0 0 24 24" fill="none" xmlns="http://www.w3.org/2000/svg">
<path d="M10.2721 19.949C10.2721 21.082 9.35411 22 8.22211 22C7.08811 22 6.17011 21.082 6.17011 19.949H10.2721ZM8.22211 2C9.02511 2 9.68211 2.613 9.75311 3.398L9.76011 3.538V4.236C12.6141 4.913 14.2781 7.416 14.3701 10.449L14.3751 10.718L14.3741 10.8C12.3631 11.905 11.0001 14.043 11.0001 16.5C11.0001 17.357 11.1661 18.174 11.4671 18.923H0.0161133V17.897L2.06711 15.847V10.717C2.06711 7.653 3.65011 5.083 6.43411 4.299L6.68311 4.235V3.537C6.68311 2.688 7.37011 2 8.22011 2H8.22211Z" fill="#00897B"/>
<path d="M15.851 18.9L20.418 14.333L20.889 14.805L15.939 19.754L15.681 19.496L15.593 19.584L13 16.992L13.471 16.52L15.851 18.9Z" fill="#00897B" stroke="#00897B"/>
</svg>
