<svg width="256" height="274" viewBox="0 0 256 274" fill="none" xmlns="http://www.w3.org/2000/svg">
<path d="M232.318 266.969C232.988 269.413 234.747 271.448 236.872 272.931C237.219 273.173 237.574 273.398 237.934 273.609C238.045 273.672 238.156 273.739 238.272 273.798C238.396 273.87 238.521 273.937 238.646 274H248.636C248.816 273.645 248.992 273.286 249.167 272.931C253.449 264.178 256.456 254.734 255.943 245.115C255.74 241.384 254.934 237.707 253.555 234.22C250.812 227.269 245.805 221.253 238.918 218.225C238.747 218.148 238.567 218.072 238.392 218C238.447 218.193 238.503 218.382 238.558 218.575C239.297 221.164 239.819 223.807 240.119 226.478C240.147 226.685 240.17 226.892 240.188 227.103C240.845 233.544 240.262 240.049 238.47 246.283C238.466 246.297 238.461 246.315 238.456 246.328C238.064 247.707 237.608 249.066 237.089 250.403C236.683 251.459 236.244 252.501 235.764 253.526C233.759 257.825 231.071 262.408 232.318 266.969Z" fill="#E6E6E6"/>
<path d="M238.057 218.431C238.154 218.556 238.25 218.677 238.347 218.802C240.366 221.407 242.08 224.222 243.458 227.197C243.532 227.344 243.601 227.492 243.66 227.644C245.549 231.797 246.762 236.211 247.255 240.728C247.26 240.759 247.264 240.79 247.264 240.822C247.379 241.878 247.448 242.942 247.476 244.007C247.578 246.003 247.356 248.003 246.818 249.932C246.328 251.507 245.469 252.95 244.309 254.147C244.194 254.267 244.079 254.388 243.955 254.505C243.863 254.599 243.762 254.692 243.665 254.782C242.737 255.646 241.721 256.447 240.847 257.373C240.447 257.788 240.085 258.237 239.767 258.715C238.739 260.335 238.472 262.305 239.032 264.129C239.657 266.393 241.086 268.304 242.548 270.125C243.279 271.038 244.033 271.96 244.686 272.935C244.925 273.284 245.145 273.638 245.347 274H245.927C245.734 273.638 245.522 273.284 245.292 272.935C243.614 270.362 241.229 268.152 239.992 265.319C239.156 263.409 238.903 261.243 239.96 259.368C240.27 258.823 240.645 258.316 241.077 257.856C241.918 256.93 242.925 256.138 243.84 255.301C244.07 255.091 244.295 254.876 244.511 254.652C245.656 253.519 246.54 252.162 247.103 250.67C247.741 248.775 248.043 246.788 247.995 244.795C247.995 243.524 247.926 242.244 247.797 240.974C247.784 240.813 247.765 240.647 247.747 240.481C246.807 232.485 243.685 224.879 238.705 218.453C238.613 218.328 238.517 218.207 238.42 218.087C238.223 217.836 237.859 218.185 238.057 218.431Z" fill="white"/>
<path d="M248.261 239.996C251.005 239.443 253.011 236.588 253 233.251C252.998 233.114 252.907 233.003 252.793 233C252.678 232.997 252.583 233.103 252.576 233.24C252.592 236.348 250.716 239.007 248.157 239.503C247.888 239.556 247.993 240.048 248.261 239.996V239.996Z" fill="white"/>
<path d="M243.905 255.498C241.618 253.524 240.017 250.56 239.422 247.194C239.363 246.861 238.947 246.991 239.006 247.324C239.63 250.824 241.301 253.906 243.685 255.953C243.912 256.147 244.131 255.691 243.905 255.498L243.905 255.498Z" fill="white"/>
<path d="M243.781 226.779C242.942 227.523 241.993 227.258 241.258 226.074C241.073 225.774 240.893 226.464 241.077 226.762C241.892 228.061 242.937 228.358 243.868 227.556C243.96 227.496 244.016 227.283 243.996 227.07C243.971 226.856 243.876 226.726 243.781 226.779Z" fill="white"/>
<path d="M205 235.704C205.155 235.825 205.314 235.946 205.469 236.071C207.571 237.698 209.539 239.495 211.354 241.445C211.495 241.592 211.637 241.745 211.774 241.897L211.779 241.901C216.081 246.625 219.482 252.111 221.812 258.085L221.825 258.125C221.829 258.139 221.834 258.148 221.838 258.161C222.762 260.552 223.506 263.01 224.065 265.514C224.606 267.959 225.048 270.579 225.894 272.934C226.022 273.297 226.164 273.655 226.315 274H246C245.934 273.646 245.863 273.288 245.792 272.934C244.791 267.745 243.225 262.684 241.125 257.843C241.054 257.682 240.983 257.521 240.904 257.36C239.82 254.968 238.545 252.669 237.092 250.486C237.092 250.485 237.091 250.483 237.09 250.483C237.089 250.482 237.088 250.481 237.087 250.481C236.289 249.29 235.432 248.141 234.519 247.038C232.151 244.188 229.354 241.734 226.231 239.765C226.213 239.752 226.191 239.743 226.173 239.73C219.957 235.829 212.589 233.971 205.545 235.578H205.54C205.359 235.619 205.182 235.659 205 235.704Z" fill="#E6E6E6"/>
<path d="M205.193 235.507C205.343 235.548 205.493 235.593 205.639 235.639C208.733 236.546 211.72 237.802 214.545 239.384C214.687 239.461 214.828 239.543 214.969 239.624C218.873 241.859 222.416 244.699 225.474 248.044C225.477 248.046 225.478 248.049 225.479 248.053C225.514 248.089 225.554 248.13 225.585 248.166C226.291 248.945 226.971 249.756 227.616 250.589C228.877 252.143 229.893 253.89 230.628 255.766C231.189 257.33 231.387 259.006 231.206 260.662C231.193 260.829 231.171 260.992 231.149 261.16C231.131 261.291 231.113 261.423 231.091 261.559C230.8 263.375 230.296 265.195 230.438 267.048C230.612 268.968 231.577 270.72 233.092 271.862C233.601 272.266 234.145 272.621 234.717 272.922C235.535 273.355 236.387 273.715 237.265 274H239C238.766 273.932 238.536 273.864 238.302 273.796C237.472 273.556 236.656 273.264 235.86 272.922C235.406 272.727 234.963 272.503 234.536 272.252C232.76 271.206 231.281 269.602 230.972 267.46C230.703 265.585 231.224 263.71 231.533 261.876C231.586 261.559 231.634 261.246 231.661 260.934C231.872 259.345 231.744 257.729 231.286 256.196C230.65 254.284 229.7 252.498 228.477 250.915C227.72 249.885 226.913 248.894 226.057 247.949C225.951 247.826 225.841 247.704 225.726 247.582C222.604 244.213 218.999 241.352 215.035 239.099H215.031C212.084 237.416 208.958 236.088 205.714 235.14H205.709C205.564 235.095 205.413 235.05 205.268 235.009C204.963 234.928 204.892 235.421 205.193 235.507Z" fill="white"/>
<path d="M225.398 248.917C227.368 246.492 227.541 242.759 225.807 240.1C225.636 239.841 225.282 240.138 225.453 240.398C227.072 242.871 226.905 246.352 225.058 248.598C224.864 248.835 225.205 249.153 225.398 248.917Z" fill="white"/>
<path d="M231.718 261.587C228.319 261.682 225 260.776 222.42 259.049C222.165 258.878 221.837 259.196 222.092 259.367C224.781 261.16 228.238 262.097 231.774 261.992C232.111 261.982 232.053 261.577 231.718 261.587Z" fill="white"/>
<path d="M212.649 240.078C212.116 240.987 211.185 241.553 210.171 241.584C209.915 241.591 209.96 242.007 210.214 242C211.334 241.96 212.362 241.338 212.959 240.34C213.024 240.249 213.011 240.12 212.928 240.046C212.843 239.974 212.718 239.988 212.649 240.078Z" fill="white"/>
<path d="M40.4568 261.821C39.3127 266.054 36.3065 269.58 32.6768 272.148C32.0851 272.568 31.4775 272.957 30.862 273.323C30.6727 273.432 30.4833 273.549 30.2861 273.65C30.073 273.774 29.86 273.891 29.6469 274H12.5799C12.2722 273.385 11.9723 272.763 11.6725 272.148C4.35809 256.988 -0.778595 240.629 0.0972173 223.967C0.444689 217.504 1.82131 211.135 4.17656 205.095C8.86348 193.055 17.4167 182.634 29.1814 177.389C29.4733 177.257 29.781 177.125 30.0809 177C29.9862 177.335 29.8915 177.662 29.7968 177.996C28.5347 182.481 27.6428 187.059 27.1299 191.685C27.0825 192.043 27.0431 192.401 27.0115 192.767C25.8906 203.925 26.8859 215.192 29.9468 225.99C29.9547 226.014 29.9625 226.045 29.9704 226.068C30.6411 228.457 31.4197 230.81 32.306 233.127C33.0004 234.956 33.75 236.761 34.5706 238.536C37.995 245.983 42.5872 253.921 40.4568 261.821Z" fill="#E6E6E6"/>
<path d="M30.9029 177.747C30.7387 177.964 30.5745 178.173 30.4103 178.39C26.9764 182.901 24.0605 187.778 21.7165 192.93C21.5914 193.186 21.4742 193.441 21.3725 193.705C18.1608 200.899 16.0982 208.545 15.2587 216.367C15.2496 216.421 15.2444 216.476 15.2431 216.53C15.0476 218.359 14.9304 220.204 14.8835 222.048C14.7896 225.497 15.0085 228.993 16.0015 232.31C16.8353 235.038 18.2966 237.538 20.2701 239.611C20.4656 239.82 20.661 240.03 20.8721 240.231C21.0285 240.394 21.2005 240.557 21.3647 240.712C22.944 242.207 24.6717 243.595 26.1572 245.199C26.8381 245.919 27.4529 246.697 27.9945 247.524C29.8161 250.353 30.121 253.694 29.2454 256.902C28.1821 260.824 25.7507 264.134 23.2645 267.288C22.0214 268.869 20.7392 270.466 19.629 272.155C19.2225 272.76 18.8472 273.372 18.5033 274H17.5182C17.8465 273.372 18.2062 272.76 18.5971 272.155C21.4507 267.699 25.5083 263.87 27.6114 258.964C29.0343 255.655 29.4643 251.903 27.6661 248.656C27.1391 247.712 26.5014 246.832 25.7663 246.036C24.3356 244.432 22.6234 243.06 21.0676 241.611C20.6767 241.246 20.2936 240.874 19.9261 240.487C17.978 238.525 16.4747 236.173 15.5167 233.589C14.3518 230.342 14 226.838 14 223.413C14 221.211 14.1172 218.995 14.3362 216.794C14.3596 216.515 14.3909 216.228 14.4222 215.941C16.021 202.09 21.3309 188.915 29.8005 177.785C29.9568 177.568 30.121 177.359 30.2852 177.15C30.6214 176.716 31.239 177.32 30.9029 177.747Z" fill="white"/>
<path d="M13.479 215.993C7.99016 215.046 3.97742 210.151 4.0001 204.43C4.00314 204.195 4.18653 204.005 4.41489 204C4.64325 203.995 4.83455 204.177 4.84757 204.411C4.81688 209.74 8.56821 214.297 13.6863 215.149C14.2245 215.239 14.0141 216.083 13.479 215.993Z" fill="white"/>
<path d="M19.1903 239.218C23.765 236.149 26.9664 231.537 28.1561 226.302C28.2736 225.784 29.106 225.986 28.9887 226.504C27.74 231.949 24.3983 236.742 19.6305 239.926C19.1758 240.229 18.7381 239.52 19.1903 239.218L19.1903 239.218Z" fill="white"/>
<path d="M21.6558 192.779C24.1752 193.523 27.0199 193.258 29.2258 192.074C29.7814 191.774 30.3208 192.464 29.7688 192.762C27.3246 194.061 24.1888 194.358 21.3967 193.556C21.1191 193.496 20.9511 193.283 21.0127 193.07C21.0855 192.856 21.3724 192.726 21.6558 192.779V192.779Z" fill="white"/>
<path d="M91 207.227C90.7241 207.438 90.4403 207.649 90.1644 207.867C86.4216 210.704 82.9177 213.838 79.6874 217.237C79.4351 217.494 79.1828 217.76 78.9384 218.025L78.9306 218.033C71.2711 226.268 65.2148 235.835 61.0669 246.251L61.0432 246.321C61.0353 246.345 61.0275 246.36 61.0196 246.384C59.3755 250.553 58.0499 254.838 57.0542 259.204C56.0925 263.467 55.3041 268.035 53.7984 272.142C53.5698 272.774 53.3175 273.399 53.0495 274H18C18.1183 273.383 18.2444 272.759 18.3705 272.142C20.2468 263.092 22.8798 254.168 26.6796 245.829C26.8057 245.548 26.9319 245.267 27.0738 244.986C29.0043 240.815 31.2743 236.807 33.8614 233.001C33.8613 232.999 33.8621 232.997 33.8636 232.995C33.8651 232.994 33.8671 232.993 33.8692 232.993C35.2898 230.916 36.8159 228.912 38.4416 226.989C42.6578 222.021 47.6381 217.741 53.1993 214.309C53.2308 214.285 53.2702 214.27 53.3018 214.246C64.37 207.446 77.4879 204.205 90.0304 207.009H90.0383C90.3615 207.079 90.6768 207.149 91 207.227Z" fill="#E6E6E6"/>
<path d="M90.6545 208.858C90.3851 208.927 90.1157 209.004 89.8543 209.081C84.3019 210.616 78.9426 212.742 73.8747 215.419C73.6212 215.55 73.3676 215.688 73.1141 215.826C66.1103 219.607 59.7528 224.414 54.2666 230.074C54.2623 230.078 54.2595 230.084 54.2586 230.089C54.1953 230.151 54.124 230.22 54.0685 230.281C52.8009 231.599 51.5808 232.971 50.4242 234.382C48.2376 237.049 46.257 239.938 45.021 243.142C44.0143 245.789 43.659 248.625 43.9832 251.428C44.0069 251.711 44.0466 251.987 44.0862 252.271C44.1179 252.493 44.1495 252.715 44.1892 252.945C44.7121 256.019 45.6152 259.1 45.3617 262.235C45.0923 265.546 43.286 268.367 40.6003 270.382C39.6873 271.065 38.7113 271.666 37.6848 272.176C36.2171 272.908 34.6879 273.518 33.1135 274H30C30.4199 273.885 30.8319 273.77 31.2518 273.655C32.7418 273.248 34.2048 272.754 35.6329 272.176C36.4487 271.846 37.2424 271.467 38.0096 271.041C41.1945 269.271 43.8485 266.558 44.4031 262.932C44.8864 259.759 43.9515 256.586 43.3969 253.482C43.3019 252.945 43.2147 252.416 43.1671 251.888C42.7889 249.2 43.0187 246.464 43.8406 243.87C44.8942 240.613 46.764 237.647 48.8792 234.933C50.2368 233.189 51.6859 231.514 53.2207 229.913C53.4109 229.706 53.6089 229.499 53.815 229.292C59.4166 223.591 65.8844 218.75 72.9953 214.936H73.0032C78.2904 212.089 83.8997 209.841 89.7196 208.238H89.7275C89.989 208.161 90.2583 208.084 90.5198 208.015C91.0665 207.877 91.1932 208.713 90.6545 208.858Z" fill="white"/>
<path d="M52.4035 229.862C49.4482 225.82 49.1884 219.599 51.7897 215.167C52.0457 214.734 52.5771 215.229 52.3208 215.663C49.8916 219.786 50.1431 225.586 52.9133 229.331C53.2044 229.725 52.6929 230.254 52.4035 229.862Z" fill="white"/>
<path d="M43.4795 251.036C49.257 251.258 54.9008 249.144 59.2855 245.115C59.7196 244.715 60.2767 245.457 59.8431 245.856C55.273 250.04 49.3955 252.227 43.3838 251.981C42.8108 251.957 42.9096 251.012 43.4795 251.036Z" fill="white"/>
<path d="M72.8188 215.116C74.0617 216.48 76.2342 217.329 78.6001 217.376C79.1974 217.387 79.0938 218.01 78.5003 218C75.8879 217.94 73.4892 217.007 72.0964 215.51C71.9444 215.373 71.9753 215.18 72.167 215.069C72.3668 214.961 72.6576 214.982 72.8187 215.116L72.8188 215.116Z" fill="white"/>
<path d="M166 73H130.186C128.594 70.0675 126.188 67.5657 130.186 61.6745C130.186 53.5463 136.691 46.8772 144.901 46.5871C152.648 44.2962 158.227 48.9479 159.743 56.3998L166 73Z" fill="#E6E6E6"/>
<path d="M95.9415 80.0308C97.2371 80.1766 98.4029 80.9017 99.1254 82.011C99.8479 83.1204 100.053 84.5 99.6848 85.7786L127 109.011L119.41 112L93.9005 88.7783C91.7947 87.9865 90.6009 85.7092 91.1216 83.4775C91.6423 81.2458 93.7129 79.7651 95.9415 80.0308H95.9415Z" fill="#FFB6B6"/>
<path d="M128.193 117C122.29 117.001 99.2604 93.1726 98.2555 92.1296L98 91.8644L106.525 89.6125L126.976 104.255L134.431 91.7965C136.12 88.9817 139.419 87.5189 142.672 88.1422C145.536 88.6946 147.851 90.7741 148.679 93.5374C149.506 96.3007 148.708 99.289 146.609 101.29L132.508 114.731C131.424 115.762 130.104 116.52 128.66 116.939C128.508 116.981 128.351 117.002 128.193 117Z" fill="#E6E6E6"/>
<path d="M128 114.291L131.005 125.519L155.965 131L154.347 125.29L159 120.377L153.885 112L128 114.291Z" fill="#FFB8B8"/>
<path d="M127 266H122.257L120 247H127V266Z" fill="#FFB8B8"/>
<path d="M128 274H124.519L123.898 270.767L122.307 274H113.075C112.167 274 111.364 273.419 111.094 272.566C110.824 271.713 111.149 270.786 111.896 270.278L119.268 265.269V262L127.022 262.455L128 274Z" fill="#E6E6E6"/>
<path d="M187 260.223L182.351 262L173 245.623L179.862 243L187 260.223Z" fill="#FFB8B8"/>
<path d="M191 268.056L187.71 269.406L185.886 266.444L185.618 270.264L176.892 273.845C176.034 274.198 175.053 273.934 174.471 273.194C173.889 272.453 173.842 271.409 174.354 270.616L179.407 262.795L178.157 259.557L185.661 257L191 268.056Z" fill="#E6E6E6"/>
<path d="M157.476 123L157.028 122.599C156.896 122.482 143.661 110.964 127.157 121.718L126.622 122.066L123.241 106.722C122.439 103.124 123.671 99.3668 126.427 97.0107L138.342 86.783L142.522 84.6272L141.991 81.0689C141.781 79.6272 142.574 78.2296 143.896 77.7129L150.39 75.2008C151.899 74.6091 153.591 75.368 154.201 76.9107L154.889 78.6287L156.363 78.0938C158.168 77.4147 160.161 77.5066 161.9 78.3492C163.646 79.2228 164.952 80.8186 165.494 82.7412C168.027 91.5803 167.348 101.069 163.584 109.428L157.476 123Z" fill="#E6E6E6"/>
<path d="M127.71 257H118L120.684 211.168L118.722 180.103L118.726 180.078L126.043 135.547C126.618 132.035 128.173 128.76 130.528 126.101L130.617 126L155.103 132.076L157.565 137.716C165.971 142.739 168.626 171.065 168.735 172.271L172.294 207.582L181 250.86L174.869 254.176L174.767 253.971L155.412 215.305L143.189 174.528L135.361 211.228L127.71 257Z" fill="#E6E6E6"/>
<path d="M168.406 158.671C167.485 157.744 167.022 156.457 167.141 155.155C167.259 153.854 167.947 152.672 169.019 151.927L162 117L169.751 119.493L175.369 153.276C176.524 155.206 176.055 157.696 174.279 159.072C172.502 160.449 169.979 160.276 168.406 158.671V158.671Z" fill="#FFB6B6"/>
<path d="M157.517 85.619L162.58 82.0016C162.58 82.0016 167.047 81.7022 167.838 89.3261C168.629 96.9499 170.253 111.808 170.253 111.808L178 145.772L167.276 148L158.978 111.347L154 100.462L157.517 85.619Z" fill="#E6E6E6"/>
<circle cx="144" cy="63" r="12" fill="#FFB8B8"/>
<path d="M150.714 51.167C148.688 49.1349 145.951 47.9966 143.1 48H140.841C134.854 48 130 52.9173 130 58.983V58.9831C131.972 60.7155 141.523 60.3597 147.165 59.8983C146.761 65.8536 141.767 71.7055 143.1 75H165.685V72.7118C167.619 62.6578 160.399 54.2713 150.714 51.167Z" fill="#E6E6E6"/>
<circle cx="48" cy="196" r="7" fill="#F2F2F2"/>
<circle cx="226" cy="225" r="6" fill="#F2F2F2"/>
<circle cx="199" cy="103" r="6" fill="#F2F2F2"/>
<path d="M79.1977 51.3145C82.6227 43.3254 85.391 34.2712 83.245 25.5519C81.5657 18.7282 76.754 12.1865 69.7122 10.4421C62.2663 8.70871 54.5854 12.1821 50.9255 18.9377C49.1796 22.2629 48.484 26.0457 48.9316 29.7799C49.3909 33.4889 50.9942 37.5729 54.3704 39.5168C57.4524 41.2913 61.7497 40.7983 63.5143 37.4309C64.9977 34.6 64.4204 30.9627 62.4727 28.5129C60.0964 25.5241 56.2508 24.1765 52.6312 23.5103C48.8265 22.8061 44.9327 22.7362 41.1054 23.3035C33.5774 24.427 26.4619 28.2855 22.1573 34.7173C18.1792 40.6612 16.6809 48.5369 19.3278 55.328C21.9666 62.0982 28.015 66.8804 34.7019 69.2374C42.9067 72.1295 51.9207 71.099 60.1237 68.7576C62.2833 68.1412 64.4138 67.4269 66.5231 66.6548C67.3272 66.3605 66.98 65.0559 66.1668 65.3536C58.1738 68.2793 49.5987 70.4627 41.0411 69.362C34.4332 68.512 27.924 65.3674 23.6554 60.1324C21.5613 57.5786 20.1616 54.5211 19.5935 51.2591C19.072 47.932 19.357 44.5273 20.4241 41.335C22.6539 34.6568 27.6621 29.2879 34.1419 26.6295C37.4823 25.2401 41.0391 24.4525 44.6502 24.3024C48.2424 24.0979 51.8428 24.5177 55.2935 25.5433C58.3695 26.5031 61.644 28.3758 62.6621 31.6621C63.4732 34.2803 62.8641 37.7675 60.0515 38.8694C58.3894 39.4515 56.5566 39.2619 55.0468 38.3516C53.5022 37.3835 52.2858 35.9661 51.5584 34.2868C48.6479 27.6726 50.3016 19.9233 55.6535 15.0969C58.2987 12.8498 61.6005 11.5343 65.0565 11.3506C68.4004 11.1758 71.7039 12.151 74.4248 14.1161C77.0838 16.1042 79.1867 18.7512 80.5292 21.7998C83.8765 29.0698 82.7735 37.3519 80.3158 44.7126C79.6457 46.7193 78.8737 48.6901 78.0406 50.6334C77.7023 51.4224 78.8565 52.1105 79.1977 51.3145Z" fill="#F2F2F2"/>
<circle cx="78.5" cy="62.5" r="13.5" fill="white"/>
<path d="M91.2726 64.5365C91.2717 69.9149 87.8909 74.7125 82.8262 76.5228C77.7615 78.3332 72.1055 76.7656 68.6953 72.6065C68.3142 72.1402 67.9671 71.6471 67.6569 71.1309C67.3331 70.5893 67.0436 70.0279 66.7899 69.4501C66.5325 68.8169 66.3233 68.1653 66.164 67.5006C66.0084 66.8923 65.9069 66.2714 65.8605 65.6452C65.3947 60.244 68.3926 55.1381 73.3363 52.9129C76.9689 51.2884 81.152 51.4538 84.645 53.3601C88.1381 55.2664 90.5402 58.6948 91.1392 62.6288C91.1678 62.8054 91.1681 62.8135 91.1763 62.8822C91.1979 63.0637 91.2157 63.2456 91.2297 63.4279C91.2584 63.7969 91.2706 64.1665 91.2726 64.5365C91.2824 66.2909 94.0097 66.2946 94 64.5365C94.0199 56.2263 87.482 49.3792 79.1795 49.0151C70.877 48.651 63.7648 54.8995 63.0571 63.1796C62.3494 71.4596 68.2982 78.8243 76.542 79.8743C84.7859 80.9243 92.3909 75.2859 93.7815 67.0928C93.9181 66.2474 93.9911 65.3929 94 64.5365C94.0097 62.7813 91.2824 62.7792 91.2726 64.5365Z" fill="#F2F2F2"/>
<circle cx="80.5" cy="15.5" r="13.5" fill="white"/>
<path d="M91.2726 15.5365C91.2717 20.9149 87.8909 25.7125 82.8262 27.5228C77.7615 29.3332 72.1055 27.7656 68.6953 23.6065C68.3142 23.1402 67.9671 22.6471 67.6569 22.1309C67.3331 21.5893 67.0436 21.0279 66.7899 20.4501C66.5325 19.8169 66.3233 19.1653 66.164 18.5006C66.0084 17.8923 65.9069 17.2714 65.8605 16.6452C65.3947 11.244 68.3926 6.13814 73.3363 3.91291C76.9689 2.28836 81.152 2.45377 84.645 4.36009C88.1381 6.26641 90.5402 9.69482 91.1392 13.6288C91.1678 13.8054 91.1681 13.8135 91.1763 13.8822C91.1979 14.0637 91.2157 14.2456 91.2297 14.4279C91.2584 14.7969 91.2706 15.1665 91.2726 15.5365C91.2824 17.2909 94.0097 17.2946 94 15.5365C94.0199 7.22631 87.482 0.379222 79.1795 0.0151321C70.877 -0.348958 63.7648 5.89953 63.0571 14.1796C62.3494 22.4596 68.2982 29.8243 76.542 30.8743C84.7859 31.9243 92.3909 26.2859 93.7815 18.0928C93.9181 17.2474 93.9911 16.3929 94 15.5365C94.0097 13.7813 91.2824 13.7792 91.2726 15.5365Z" fill="#F2F2F2"/>
<circle cx="24.5" cy="64.5" r="13.5" fill="white"/>
<path d="M39.2726 64.5365C39.2717 69.9149 35.8909 74.7125 30.8262 76.5228C25.7615 78.3332 20.1055 76.7656 16.6953 72.6065C16.3142 72.1402 15.9671 71.6471 15.6569 71.1309C15.3331 70.5893 15.0436 70.0279 14.7899 69.4501C14.5325 68.8169 14.3233 68.1653 14.164 67.5006C14.0084 66.8923 13.9069 66.2714 13.8605 65.6452C13.3947 60.244 16.3926 55.1381 21.3363 52.9129C24.9689 51.2884 29.152 51.4538 32.645 53.3601C36.1381 55.2664 38.5402 58.6948 39.1392 62.6288C39.1678 62.8054 39.1681 62.8135 39.1763 62.8822C39.1979 63.0637 39.2157 63.2456 39.2297 63.4279C39.2584 63.7969 39.2706 64.1665 39.2726 64.5365C39.2824 66.2909 42.0097 66.2946 42 64.5365C42.0199 56.2263 35.482 49.3792 27.1795 49.0151C18.877 48.651 11.7648 54.8995 11.0571 63.1796C10.3494 71.4596 16.2982 78.8243 24.542 79.8743C32.7859 80.9243 40.3909 75.2859 41.7815 67.0928C41.9181 66.2474 41.9911 65.3929 42 64.5365C42.0097 62.7813 39.2824 62.7792 39.2726 64.5365Z" fill="#F2F2F2"/>
</svg>
