<svg width="24" height="24" viewBox="0 0 24 24" fill="none" xmlns="http://www.w3.org/2000/svg">
<path fill-rule="evenodd" clip-rule="evenodd" d="M12.0002 8C13.0986 8 13.9974 7.1 13.9974 6C13.9974 4.9 13.0986 4 12.0002 4C10.9017 4 10.0029 4.9 10.0029 6C10.0029 7.1 10.9017 8 12.0002 8ZM12.0002 10C10.9017 10 10.0029 10.9 10.0029 12C10.0029 13.1 10.9017 14 12.0002 14C13.0986 14 13.9974 13.1 13.9974 12C13.9974 10.9 13.0986 10 12.0002 10ZM12.0002 16C10.9017 16 10.0029 16.9 10.0029 18C10.0029 19.1 10.9017 20 12.0002 20C13.0986 20 13.9974 19.1 13.9974 18C13.9974 16.9 13.0986 16 12.0002 16Z" fill="#484F67"/>
</svg>
