<svg width="25" height="25" viewBox="0 0 25 25" fill="none" xmlns="http://www.w3.org/2000/svg">
<path d="M20.5563 8.13185L15.3063 2.88185C15.2366 2.81223 15.1538 2.75701 15.0628 2.71937C14.9717 2.68173 14.8742 2.6624 14.7756 2.66248H5.77563C5.37781 2.66248 4.99628 2.82051 4.71497 3.10182C4.43367 3.38312 4.27563 3.76465 4.27563 4.16248V20.6625C4.27563 21.0603 4.43367 21.4418 4.71497 21.7231C4.99628 22.0044 5.37781 22.1625 5.77563 22.1625H19.2756C19.6735 22.1625 20.055 22.0044 20.3363 21.7231C20.6176 21.4418 20.7756 21.0603 20.7756 20.6625V8.66248C20.7757 8.56396 20.7564 8.46639 20.7187 8.37534C20.6811 8.28429 20.6259 8.20155 20.5563 8.13185ZM15.5256 5.22279L18.2153 7.91248H15.5256V5.22279ZM19.2756 20.6625H5.77563V4.16248H14.0256V8.66248C14.0256 8.86139 14.1047 9.05215 14.2453 9.19281C14.386 9.33346 14.5767 9.41248 14.7756 9.41248H19.2756V20.6625Z" fill="white"/>
</svg>
