<svg width="17" height="17" viewBox="0 0 17 17" fill="none" xmlns="http://www.w3.org/2000/svg">
<path d="M0.80957 6.87793C0.80957 10.3726 3.64014 13.2114 7.13477 13.2114C8.47119 13.2114 9.69971 12.7964 10.7124 12.0825L14.4478 15.8179C14.647 16.0254 14.9209 16.1167 15.1948 16.1167C15.8008 16.1167 16.2324 15.6602 16.2324 15.0708C16.2324 14.7886 16.1328 14.5229 15.9419 14.332L12.2314 10.605C13.0117 9.56738 13.4683 8.28076 13.4683 6.87793C13.4683 3.3833 10.6377 0.544434 7.13477 0.544434C3.64014 0.544434 0.80957 3.3833 0.80957 6.87793ZM2.32031 6.87793C2.32031 4.22168 4.47852 2.06348 7.13477 2.06348C9.79932 2.06348 11.9575 4.22168 11.9575 6.87793C11.9575 9.54248 9.79932 11.7007 7.13477 11.7007C4.47852 11.7007 2.32031 9.54248 2.32031 6.87793Z" fill="#666666"/>
</svg>
