<svg width="13" height="16" viewBox="0 0 13 16" fill="none" xmlns="http://www.w3.org/2000/svg">
<path fill-rule="evenodd" clip-rule="evenodd" d="M1.37796 4.8V6.46857H1.26694C0.568163 6.46857 0 7.03673 0 7.73551V14.7135C0 15.4122 0.568163 15.9804 1.26694 15.9804H11.0041C11.7029 15.9804 12.271 15.4122 12.271 14.7135V7.73224C12.271 7.03347 11.7029 6.46531 11.0041 6.46531H10.9714V4.79673C10.9714 2.15184 8.81959 0 6.17469 0C3.5298 0.00326531 1.37796 2.1551 1.37796 4.8ZM6.88653 11.5331C6.78857 11.6049 6.76245 11.6735 6.76245 11.7878C6.76571 12.3004 6.76571 12.8098 6.76571 13.3224C6.77551 13.5347 6.66776 13.7437 6.47837 13.8384C6.03102 14.0669 5.58367 13.7469 5.58367 13.3224V13.3192C5.58367 12.8065 5.58367 12.2939 5.58694 11.7812C5.58694 11.6767 5.56408 11.6082 5.47265 11.5396C5.00898 11.1967 4.85551 10.6122 5.08735 10.0996C5.31265 9.6 5.86449 9.30612 6.38367 9.41061C6.96163 9.52816 7.36327 9.99184 7.3698 10.5698C7.3698 10.9714 7.2098 11.298 6.88653 11.5331ZM6.17469 2.10286C4.68898 2.10286 3.47755 3.31102 3.47755 4.8V6.46857H8.87184V4.8C8.87184 3.31429 7.66367 2.10286 6.17469 2.10286Z" fill="#666666"/>
</svg>
