<svg width="25" height="25" viewBox="0 0 25 25" fill="none" xmlns="http://www.w3.org/2000/svg">
<path d="M20.9041 20.0634C20.9717 20.1361 21.0243 20.2214 21.0587 20.3145C21.0931 20.4076 21.1087 20.5066 21.1045 20.6058C21.1004 20.7049 21.0766 20.8023 21.0345 20.8922C20.9925 20.9821 20.933 21.0627 20.8596 21.1295C20.7861 21.1962 20.7002 21.2477 20.6067 21.281C20.5132 21.3143 20.414 21.3287 20.3149 21.3234C20.2158 21.318 20.1187 21.2931 20.0293 21.25C19.9399 21.2068 19.86 21.1464 19.7941 21.0722L15.8491 16.7325V21.3178C15.849 21.4581 15.8095 21.5956 15.7352 21.7146C15.6608 21.8337 15.5545 21.9294 15.4285 21.9911C15.3024 22.0527 15.1615 22.0777 15.0219 22.0633C14.8823 22.0488 14.7496 21.9955 14.6388 21.9094L8.09131 16.8178H3.84912C3.4513 16.8178 3.06977 16.6598 2.78846 16.3785C2.50716 16.0972 2.34912 15.7156 2.34912 15.3178V9.3178C2.34912 8.91997 2.50716 8.53844 2.78846 8.25714C3.06977 7.97583 3.4513 7.8178 3.84912 7.8178H7.74443L4.79412 4.57217C4.66315 4.42454 4.59565 4.23123 4.60625 4.03416C4.61685 3.83709 4.7047 3.65214 4.85076 3.51941C4.99681 3.38668 5.18929 3.31687 5.38648 3.32511C5.58366 3.33334 5.76965 3.41897 5.90412 3.56342L20.9041 20.0634ZM14.3491 15.0825L9.1085 9.3178H3.84912V15.3178H8.34912C8.51598 15.3175 8.67809 15.3733 8.80943 15.4762L14.3491 19.784V15.0825ZM11.8235 6.81561L14.3491 4.84686V10.3284C14.3491 10.5273 14.4281 10.7181 14.5688 10.8588C14.7094 10.9994 14.9002 11.0784 15.0991 11.0784C15.298 11.0784 15.4888 10.9994 15.6295 10.8588C15.7701 10.7181 15.8491 10.5273 15.8491 10.3284V3.3178C15.849 3.17746 15.8095 3.03996 15.7352 2.92095C15.6608 2.80193 15.5545 2.70617 15.4285 2.64454C15.3024 2.58291 15.1615 2.5579 15.0219 2.57234C14.8823 2.58678 14.7496 2.6401 14.6388 2.72623L10.9029 5.63248C10.749 5.75563 10.6498 5.9344 10.6267 6.13013C10.6036 6.32585 10.6585 6.52281 10.7794 6.6784C10.9004 6.83398 11.0778 6.9357 11.2731 6.96156C11.4685 6.98741 11.6662 6.93438 11.8235 6.81561Z" fill="black"/>
</svg>
